<svg width="68" height="68" viewBox="0 0 68 68" fill="none" xmlns="http://www.w3.org/2000/svg">
<path d="M34.0003 0.666504C27.4076 0.666504 20.963 2.62147 15.4813 6.28418C9.99969 9.9469 5.72728 15.1529 3.20436 21.2437C0.681435 27.3346 0.0213238 34.0368 1.3075 40.5028C2.59367 46.9689 5.76836 52.9083 10.4301 57.5701C15.0919 62.2318 21.0313 65.4065 27.4973 66.6927C33.9634 67.9789 40.6656 67.3187 46.7565 64.7958C52.8473 62.2729 58.0533 58.0005 61.716 52.5188C65.3787 47.0372 67.3337 40.5925 67.3337 33.9998C67.3337 29.6224 66.4715 25.2879 64.7963 21.2437C63.1212 17.1995 60.6658 13.5249 57.5706 10.4296C54.4753 7.33433 50.8006 4.87901 46.7565 3.20385C42.7123 1.5287 38.3777 0.666504 34.0003 0.666504V0.666504ZM34.0003 60.6665C28.7262 60.6665 23.5704 59.1025 19.1851 56.1724C14.7998 53.2422 11.3819 49.0774 9.36355 44.2047C7.34522 39.332 6.81713 33.9703 7.84607 28.7974C8.87501 23.6246 11.4148 18.8731 15.1442 15.1437C18.8736 11.4143 23.6251 8.8745 28.7979 7.84556C33.9708 6.81662 39.3325 7.34471 44.2052 9.36305C49.0779 11.3814 53.2427 14.7993 56.1729 19.1846C59.103 23.5699 60.667 28.7257 60.667 33.9998C60.667 41.0723 57.8575 47.8551 52.8565 52.856C47.8556 57.857 41.0728 60.6665 34.0003 60.6665V60.6665ZM47.3337 30.6665H37.3337V20.6665C37.3337 19.7824 36.9825 18.9346 36.3574 18.3095C35.7322 17.6844 34.8844 17.3332 34.0003 17.3332C33.1163 17.3332 32.2684 17.6844 31.6433 18.3095C31.0182 18.9346 30.667 19.7824 30.667 20.6665V30.6665H20.667C19.783 30.6665 18.9351 31.0177 18.31 31.6428C17.6849 32.2679 17.3337 33.1158 17.3337 33.9998C17.3337 34.8839 17.6849 35.7317 18.31 36.3569C18.9351 36.982 19.783 37.3332 20.667 37.3332H30.667V47.3332C30.667 48.2172 31.0182 49.0651 31.6433 49.6902C32.2684 50.3153 33.1163 50.6665 34.0003 50.6665C34.8844 50.6665 35.7322 50.3153 36.3574 49.6902C36.9825 49.0651 37.3337 48.2172 37.3337 47.3332V37.3332H47.3337C48.2177 37.3332 49.0656 36.982 49.6907 36.3569C50.3158 35.7317 50.667 34.8839 50.667 33.9998C50.667 33.1158 50.3158 32.2679 49.6907 31.6428C49.0656 31.0177 48.2177 30.6665 47.3337 30.6665Z" fill="#1C77FF"/>
</svg>
