<svg width="15" height="15" viewBox="0 0 15 15" fill="none" xmlns="http://www.w3.org/2000/svg">
<path d="M8.73394 7.50016L14.2464 1.99641C14.4112 1.83165 14.5038 1.60818 14.5038 1.37516C14.5038 1.14215 14.4112 0.918678 14.2464 0.753912C14.0817 0.589147 13.8582 0.496582 13.6252 0.496582C13.3922 0.496582 13.1687 0.589147 13.0039 0.753912L7.50019 6.26641L1.99644 0.753912C1.83168 0.589147 1.6082 0.496582 1.37519 0.496582C1.14218 0.496582 0.918706 0.589147 0.753941 0.753912C0.589175 0.918678 0.496611 1.14215 0.496611 1.37516C0.496611 1.60818 0.589175 1.83165 0.753941 1.99641L6.26644 7.50016L0.753941 13.0039C0.671928 13.0853 0.606834 13.182 0.562411 13.2887C0.517988 13.3953 0.495117 13.5097 0.495117 13.6252C0.495117 13.7407 0.517988 13.855 0.562411 13.9617C0.606834 14.0683 0.671928 14.1651 0.753941 14.2464C0.835283 14.3284 0.932059 14.3935 1.03869 14.4379C1.14531 14.4824 1.25968 14.5052 1.37519 14.5052C1.4907 14.5052 1.60507 14.4824 1.7117 14.4379C1.81832 14.3935 1.9151 14.3284 1.99644 14.2464L7.50019 8.73391L13.0039 14.2464C13.0853 14.3284 13.1821 14.3935 13.2887 14.4379C13.3953 14.4824 13.5097 14.5052 13.6252 14.5052C13.7407 14.5052 13.8551 14.4824 13.9617 14.4379C14.0683 14.3935 14.1651 14.3284 14.2464 14.2464C14.3285 14.1651 14.3935 14.0683 14.438 13.9617C14.4824 13.855 14.5053 13.7407 14.5053 13.6252C14.5053 13.5097 14.4824 13.3953 14.438 13.2887C14.3935 13.182 14.3285 13.0853 14.2464 13.0039L8.73394 7.50016Z" fill="white"/>
</svg>
