<svg width="25" height="25" viewBox="0 0 25 25" fill="none" xmlns="http://www.w3.org/2000/svg">
<path d="M17.1375 7.8625C17.0213 7.74534 16.883 7.65235 16.7307 7.58889C16.5784 7.52543 16.415 7.49275 16.25 7.49275C16.085 7.49275 15.9216 7.52543 15.7693 7.58889C15.617 7.65235 15.4787 7.74534 15.3625 7.8625L12.5 10.7375L9.6375 7.8625C9.40212 7.62712 9.08288 7.49489 8.75 7.49489C8.41712 7.49489 8.09788 7.62712 7.8625 7.8625C7.62712 8.09788 7.49489 8.41712 7.49489 8.75C7.49489 9.08288 7.62712 9.40212 7.8625 9.6375L10.7375 12.5L7.8625 15.3625C7.74534 15.4787 7.65235 15.617 7.58889 15.7693C7.52543 15.9216 7.49275 16.085 7.49275 16.25C7.49275 16.415 7.52543 16.5784 7.58889 16.7307C7.65235 16.883 7.74534 17.0213 7.8625 17.1375C7.9787 17.2547 8.11696 17.3477 8.26928 17.4111C8.4216 17.4746 8.58499 17.5072 8.75 17.5072C8.91501 17.5072 9.0784 17.4746 9.23072 17.4111C9.38304 17.3477 9.5213 17.2547 9.6375 17.1375L12.5 14.2625L15.3625 17.1375C15.4787 17.2547 15.617 17.3477 15.7693 17.4111C15.9216 17.4746 16.085 17.5072 16.25 17.5072C16.415 17.5072 16.5784 17.4746 16.7307 17.4111C16.883 17.3477 17.0213 17.2547 17.1375 17.1375C17.2547 17.0213 17.3477 16.883 17.4111 16.7307C17.4746 16.5784 17.5072 16.415 17.5072 16.25C17.5072 16.085 17.4746 15.9216 17.4111 15.7693C17.3477 15.617 17.2547 15.4787 17.1375 15.3625L14.2625 12.5L17.1375 9.6375C17.2547 9.5213 17.3477 9.38304 17.4111 9.23072C17.4746 9.0784 17.5072 8.91501 17.5072 8.75C17.5072 8.58499 17.4746 8.4216 17.4111 8.26928C17.3477 8.11696 17.2547 7.9787 17.1375 7.8625ZM21.25 0H3.75C2.75544 0 1.80161 0.395088 1.09835 1.09835C0.395088 1.80161 0 2.75544 0 3.75V21.25C0 22.2446 0.395088 23.1984 1.09835 23.9017C1.80161 24.6049 2.75544 25 3.75 25H21.25C22.2446 25 23.1984 24.6049 23.9017 23.9017C24.6049 23.1984 25 22.2446 25 21.25V3.75C25 2.75544 24.6049 1.80161 23.9017 1.09835C23.1984 0.395088 22.2446 0 21.25 0ZM22.5 21.25C22.5 21.5815 22.3683 21.8995 22.1339 22.1339C21.8995 22.3683 21.5815 22.5 21.25 22.5H3.75C3.41848 22.5 3.10054 22.3683 2.86612 22.1339C2.6317 21.8995 2.5 21.5815 2.5 21.25V3.75C2.5 3.41848 2.6317 3.10054 2.86612 2.86612C3.10054 2.6317 3.41848 2.5 3.75 2.5H21.25C21.5815 2.5 21.8995 2.6317 22.1339 2.86612C22.3683 3.10054 22.5 3.41848 22.5 3.75V21.25Z" fill="#4098FF"/>
</svg>
