<svg width="42" height="42" viewBox="0 0 42 42" fill="none" xmlns="http://www.w3.org/2000/svg">
<path d="M28.729 13.2709C28.5353 13.0756 28.3049 12.9207 28.051 12.8149C27.7972 12.7091 27.5249 12.6547 27.2498 12.6547C26.9748 12.6547 26.7025 12.7091 26.4486 12.8149C26.1948 12.9207 25.9643 13.0756 25.7707 13.2709L20.9998 18.0626L16.229 13.2709C15.8367 12.8786 15.3046 12.6582 14.7498 12.6582C14.195 12.6582 13.663 12.8786 13.2707 13.2709C12.8784 13.6632 12.658 14.1953 12.658 14.7501C12.658 15.3049 12.8784 15.8369 13.2707 16.2292L18.0623 21.0001L13.2707 25.7709C13.0754 25.9646 12.9204 26.195 12.8146 26.4489C12.7089 26.7028 12.6544 26.9751 12.6544 27.2501C12.6544 27.5251 12.7089 27.7974 12.8146 28.0513C12.9204 28.3052 13.0754 28.5356 13.2707 28.7293C13.4643 28.9245 13.6948 29.0795 13.9486 29.1853C14.2025 29.291 14.4748 29.3455 14.7498 29.3455C15.0249 29.3455 15.2972 29.291 15.551 29.1853C15.8049 29.0795 16.0353 28.9245 16.229 28.7293L20.9998 23.9376L25.7707 28.7293C25.9643 28.9245 26.1948 29.0795 26.4486 29.1853C26.7025 29.291 26.9748 29.3455 27.2498 29.3455C27.5249 29.3455 27.7972 29.291 28.051 29.1853C28.3049 29.0795 28.5353 28.9245 28.729 28.7293C28.9243 28.5356 29.0793 28.3052 29.185 28.0513C29.2908 27.7974 29.3453 27.5251 29.3453 27.2501C29.3453 26.9751 29.2908 26.7028 29.185 26.4489C29.0793 26.195 28.9243 25.9646 28.729 25.7709L23.9373 21.0001L28.729 16.2292C28.9243 16.0356 29.0793 15.8052 29.185 15.5513C29.2908 15.2974 29.3453 15.0251 29.3453 14.7501C29.3453 14.4751 29.2908 14.2028 29.185 13.9489C29.0793 13.695 28.9243 13.4646 28.729 13.2709V13.2709ZM35.5832 0.166748H6.4165C4.7589 0.166748 3.16919 0.825229 1.99709 1.99733C0.824984 3.16943 0.166504 4.75915 0.166504 6.41675V35.5834C0.166504 37.241 0.824984 38.8307 1.99709 40.0028C3.16919 41.1749 4.7589 41.8334 6.4165 41.8334H35.5832C37.2408 41.8334 38.8305 41.1749 40.0026 40.0028C41.1747 38.8307 41.8332 37.241 41.8332 35.5834V6.41675C41.8332 4.75915 41.1747 3.16943 40.0026 1.99733C38.8305 0.825229 37.2408 0.166748 35.5832 0.166748ZM37.6665 35.5834C37.6665 36.136 37.447 36.6659 37.0563 37.0566C36.6656 37.4473 36.1357 37.6668 35.5832 37.6668H6.4165C5.86397 37.6668 5.33407 37.4473 4.94337 37.0566C4.55266 36.6659 4.33317 36.136 4.33317 35.5834V6.41675C4.33317 5.86421 4.55266 5.33431 4.94337 4.94361C5.33407 4.55291 5.86397 4.33342 6.4165 4.33342H35.5832C36.1357 4.33342 36.6656 4.55291 37.0563 4.94361C37.447 5.33431 37.6665 5.86421 37.6665 6.41675V35.5834Z" fill="#1C77FF"/>
</svg>
