<svg width="16" height="16" viewBox="0 0 16 16" fill="none" xmlns="http://www.w3.org/2000/svg">
<path d="M7.98191 11.2163C7.83891 11.2163 7.69912 11.2631 7.58021 11.3507C7.46131 11.4383 7.36864 11.5628 7.31391 11.7085C7.25919 11.8542 7.24487 12.0145 7.27277 12.1691C7.30067 12.3238 7.36953 12.4658 7.47065 12.5773C7.57177 12.6888 7.7006 12.7648 7.84085 12.7955C7.98111 12.8263 8.12648 12.8105 8.2586 12.7502C8.39072 12.6898 8.50364 12.5876 8.58309 12.4565C8.66253 12.3254 8.70494 12.1713 8.70494 12.0136C8.70494 11.8021 8.62876 11.5994 8.49317 11.4498C8.35757 11.3003 8.17367 11.2163 7.98191 11.2163ZM15.6966 12.3883L9.87625 1.22669C9.68812 0.854777 9.41335 0.544997 9.08033 0.329347C8.74731 0.113698 8.36811 0 7.98191 0C7.59571 0 7.21651 0.113698 6.88349 0.329347C6.55046 0.544997 6.2757 0.854777 6.08757 1.22669L0.303325 12.3883C0.108682 12.7503 0.004093 13.1625 0.00011771 13.5832C-0.00385758 14.004 0.0929213 14.4185 0.280683 14.7849C0.468446 15.1513 0.740544 15.4565 1.06951 15.6698C1.39847 15.8832 1.77266 15.997 2.15428 15.9999H13.8095C14.1942 16.0041 14.573 15.8954 14.907 15.6849C15.2411 15.4744 15.5183 15.1698 15.7104 14.8023C15.9024 14.4347 16.0024 14.0174 16 13.5932C15.9975 13.169 15.8929 12.7532 15.6966 12.3883ZM14.4458 13.9828C14.3824 14.1072 14.29 14.2105 14.1781 14.282C14.0661 14.3535 13.9389 14.3906 13.8095 14.3894H2.15428C2.02494 14.3906 1.89768 14.3535 1.78577 14.282C1.67386 14.2105 1.58139 14.1072 1.51802 13.9828C1.45456 13.8616 1.42115 13.7241 1.42115 13.5842C1.42115 13.4442 1.45456 13.3068 1.51802 13.1856L7.30226 2.02394C7.36293 1.89335 7.45512 1.78376 7.56866 1.70723C7.68219 1.6307 7.81269 1.5902 7.94576 1.5902C8.07883 1.5902 8.20932 1.6307 8.32286 1.70723C8.43639 1.78376 8.52858 1.89335 8.58925 2.02394L14.4096 13.1856C14.4814 13.305 14.5226 13.4436 14.529 13.5867C14.5353 13.7298 14.5066 13.8721 14.4458 13.9988V13.9828ZM7.98191 4.83827C7.79015 4.83827 7.60624 4.92226 7.47065 5.07178C7.33505 5.22129 7.25888 5.42408 7.25888 5.63552V8.82456C7.25888 9.036 7.33505 9.23879 7.47065 9.3883C7.60624 9.53782 7.79015 9.62182 7.98191 9.62182C8.17367 9.62182 8.35757 9.53782 8.49317 9.3883C8.62876 9.23879 8.70494 9.036 8.70494 8.82456V5.63552C8.70494 5.42408 8.62876 5.22129 8.49317 5.07178C8.35757 4.92226 8.17367 4.83827 7.98191 4.83827Z" fill="#DE4747"/>
</svg>
