<svg width="12" height="8" viewBox="0 0 12 8" fill="none" xmlns="http://www.w3.org/2000/svg">
<path d="M0.99999 2.59018L5.28999 6.83018C5.38295 6.92391 5.49355 6.9983 5.61541 7.04907C5.73727 7.09984 5.86798 7.12598 5.99999 7.12598C6.132 7.12598 6.26271 7.09984 6.38457 7.04907C6.50643 6.9983 6.61703 6.92391 6.70999 6.83018L10.95 2.59018C11.0437 2.49722 11.1181 2.38661 11.1689 2.26476C11.2197 2.1429 11.2458 2.01219 11.2458 1.88018C11.2458 1.74817 11.2197 1.61746 11.1689 1.4956C11.1181 1.37374 11.0437 1.26314 10.95 1.17018C10.7626 0.983927 10.5092 0.879386 10.245 0.879386C9.9808 0.879386 9.72735 0.983927 9.53999 1.17018L5.99999 4.71018L2.45999 1.17018C2.27373 0.985434 2.02233 0.881283 1.75999 0.880178C1.62838 0.879417 1.49792 0.904642 1.37608 0.954407C1.25425 1.00417 1.14343 1.0775 1.04999 1.17018C0.952915 1.2598 0.874561 1.36776 0.819454 1.48784C0.764347 1.60791 0.733581 1.73772 0.728931 1.86975C0.724282 2.00179 0.745843 2.13344 0.792368 2.25709C0.838893 2.38074 0.909459 2.49395 0.99999 2.59018Z" fill="#4098FF"/>
</svg>
