<svg width="18" height="10" viewBox="0 0 18 10" fill="none" xmlns="http://www.w3.org/2000/svg">
<path d="M0.864957 2.90121L7.85922 8.7901C8.01078 8.92028 8.1911 9.0236 8.38978 9.09411C8.58845 9.16462 8.80155 9.20093 9.01678 9.20093C9.232 9.20093 9.4451 9.16462 9.64378 9.09411C9.84245 9.0236 10.0228 8.92028 10.1743 8.7901L17.0871 2.90121C17.2399 2.77209 17.3612 2.61848 17.444 2.44923C17.5267 2.27998 17.5693 2.09845 17.5693 1.9151C17.5693 1.73175 17.5267 1.55021 17.444 1.38096C17.3612 1.21171 17.2399 1.0581 17.0871 0.928985C16.7816 0.670303 16.3684 0.525106 15.9377 0.525106C15.507 0.525106 15.0937 0.670303 14.7883 0.928985L9.01678 5.84565L3.24529 0.928985C2.94162 0.672396 2.53174 0.527741 2.10403 0.526207C1.88947 0.52515 1.67677 0.560184 1.47813 0.629302C1.27949 0.698419 1.09882 0.800261 0.946474 0.928985C0.788207 1.05345 0.660462 1.20341 0.570618 1.37018C0.480773 1.53695 0.430612 1.71724 0.423033 1.90062C0.415453 2.084 0.450605 2.26684 0.526457 2.43859C0.602309 2.61033 0.717358 2.76756 0.864957 2.90121Z" fill="#2E2E2E" fill-opacity="0.9"/>
</svg>
