<svg width="30" height="30" viewBox="0 0 30 30" fill="none" xmlns="http://www.w3.org/2000/svg">
<path fill-rule="evenodd" clip-rule="evenodd" d="M16.2938 8.70592L18.7498 6.24994C19.7668 5.23289 20.2754 4.72436 20.887 4.61154C21.1268 4.56731 21.3727 4.56731 21.6125 4.61154C22.2242 4.72436 22.7327 5.23288 23.7498 6.24993L23.7498 6.24994C24.7668 7.267 25.2754 7.77552 25.3882 8.38717C25.4324 8.627 25.4324 8.87289 25.3882 9.11271C25.2754 9.72436 24.7668 10.2329 23.7498 11.2499L21.3216 13.6782C19.2381 12.4797 17.5077 10.7623 16.2938 8.70592ZM14.8394 10.1603L5.85615 19.1436C5.43109 19.5686 5.21856 19.7812 5.07883 20.0423C4.93909 20.3033 4.88015 20.5981 4.76226 21.1875L3.89686 25.5145C3.83034 25.8471 3.79708 26.0134 3.89168 26.108C3.98629 26.2026 4.1526 26.1694 4.48521 26.1029L8.81219 25.2375C9.40164 25.1196 9.69637 25.0606 9.95746 24.9209C10.2186 24.7812 10.4311 24.5686 10.8562 24.1436L19.8635 15.1363C17.8309 13.8735 16.1149 12.1693 14.8394 10.1603Z" fill="white"/>
</svg>
