<svg width="16" height="16" viewBox="0 0 16 16" fill="none" xmlns="http://www.w3.org/2000/svg">
<path d="M9.64499 7.99989L14.6617 2.99489C14.8813 2.7752 15.0048 2.47724 15.0048 2.16656C15.0048 1.85587 14.8813 1.55791 14.6617 1.33822C14.442 1.11854 14.144 0.995117 13.8333 0.995117C13.5226 0.995117 13.2247 1.11854 13.005 1.33822L7.99999 6.35489L2.99499 1.33822C2.7753 1.11854 2.47734 0.995117 2.16666 0.995117C1.85597 0.995117 1.55801 1.11854 1.33832 1.33822C1.11864 1.55791 0.995216 1.85587 0.995216 2.16656C0.995216 2.47724 1.11864 2.7752 1.33832 2.99489L6.35499 7.99989L1.33832 13.0049C1.22897 13.1133 1.14218 13.2424 1.08295 13.3846C1.02372 13.5267 0.993225 13.6792 0.993225 13.8332C0.993225 13.9872 1.02372 14.1397 1.08295 14.2819C1.14218 14.4241 1.22897 14.5531 1.33832 14.6616C1.44678 14.7709 1.57581 14.8577 1.71798 14.9169C1.86015 14.9762 2.01264 15.0067 2.16666 15.0067C2.32067 15.0067 2.47316 14.9762 2.61533 14.9169C2.7575 14.8577 2.88653 14.7709 2.99499 14.6616L7.99999 9.64489L13.005 14.6616C13.1134 14.7709 13.2425 14.8577 13.3847 14.9169C13.5268 14.9762 13.6793 15.0067 13.8333 15.0067C13.9873 15.0067 14.1398 14.9762 14.282 14.9169C14.4242 14.8577 14.5532 14.7709 14.6617 14.6616C14.771 14.5531 14.8578 14.4241 14.917 14.2819C14.9763 14.1397 15.0068 13.9872 15.0068 13.8332C15.0068 13.6792 14.9763 13.5267 14.917 13.3846C14.8578 13.2424 14.771 13.1133 14.6617 13.0049L9.64499 7.99989Z" fill="#4098FF"/>
</svg>
