<svg width="20" height="16" viewBox="0 0 20 16" fill="none" xmlns="http://www.w3.org/2000/svg">
<path d="M18.75 6.85796H3.925L8.4625 1.87555C8.67467 1.64218 8.77675 1.34131 8.74628 1.03914C8.7158 0.736965 8.55527 0.458234 8.3 0.264265C8.04473 0.070295 7.71563 -0.0230245 7.3851 0.00483557C7.05456 0.0326956 6.74967 0.179453 6.5375 0.412823L0.2875 7.26935C0.245451 7.32389 0.207849 7.38118 0.175 7.44076C0.175 7.4979 0.175 7.53218 0.0875002 7.58932C0.0308421 7.72035 0.0011764 7.85983 0 8.00071C0.0011764 8.1416 0.0308421 8.28108 0.0875002 8.41211C0.0875002 8.46924 0.0874998 8.50353 0.175 8.56066C0.207849 8.62025 0.245451 8.67754 0.2875 8.73208L6.5375 15.5886C6.65503 15.7176 6.8022 15.8213 6.96856 15.8924C7.13491 15.9635 7.31636 16.0003 7.5 16C7.79207 16.0005 8.07511 15.9075 8.3 15.7372C8.42657 15.6412 8.5312 15.5234 8.60789 15.3905C8.68458 15.2575 8.73183 15.112 8.74692 14.9623C8.76202 14.8127 8.74466 14.6617 8.69586 14.5182C8.64705 14.3747 8.56775 14.2414 8.4625 14.1259L3.925 9.14347H18.75C19.0815 9.14347 19.3995 9.02307 19.6339 8.80876C19.8683 8.59446 20 8.30379 20 8.00071C20 7.69764 19.8683 7.40697 19.6339 7.19267C19.3995 6.97836 19.0815 6.85796 18.75 6.85796Z" fill="#4098FF"/>
</svg>
