<svg width="20" height="22" viewBox="0 0 20 22" fill="none" xmlns="http://www.w3.org/2000/svg">
<path d="M18.3333 9.33333H5.68332L11.1833 3.85C11.4972 3.53616 11.6735 3.1105 11.6735 2.66667C11.6735 2.22283 11.4972 1.79717 11.1833 1.48333C10.8695 1.16949 10.4438 0.993179 9.99999 0.993179C9.55615 0.993179 9.1305 1.16949 8.81666 1.48333L0.483323 9.81667C0.331589 9.97517 0.212647 10.1621 0.133323 10.3667C-0.0333734 10.7724 -0.0333734 11.2276 0.133323 11.6333C0.212647 11.8379 0.331589 12.0248 0.483323 12.1833L8.81666 20.5167C8.9716 20.6729 9.15593 20.7969 9.35903 20.8815C9.56213 20.9661 9.77997 21.0097 9.99999 21.0097C10.22 21.0097 10.4379 20.9661 10.641 20.8815C10.8441 20.7969 11.0284 20.6729 11.1833 20.5167C11.3395 20.3617 11.4635 20.1774 11.5481 19.9743C11.6328 19.7712 11.6763 19.5534 11.6763 19.3333C11.6763 19.1133 11.6328 18.8955 11.5481 18.6924C11.4635 18.4893 11.3395 18.3049 11.1833 18.15L5.68332 12.6667H18.3333C18.7754 12.6667 19.1993 12.4911 19.5118 12.1785C19.8244 11.8659 20 11.442 20 11C20 10.558 19.8244 10.134 19.5118 9.82149C19.1993 9.50893 18.7754 9.33333 18.3333 9.33333Z" fill="white"/>
</svg>
