<svg width="28" height="28" viewBox="0 0 28 28" fill="none" xmlns="http://www.w3.org/2000/svg">
<path d="M20.8745 10.2487C19.7555 10.2483 18.6537 10.5251 17.6677 11.0544C17.5778 10.8174 17.4178 10.6135 17.2092 10.4695C17.0005 10.3256 16.753 10.2486 16.4995 10.2487H11.4995C11.3354 10.2486 11.1728 10.2809 11.0211 10.3437C10.8694 10.4065 10.7315 10.4986 10.6154 10.6147C10.4994 10.7307 10.4073 10.8686 10.3445 11.0203C10.2817 11.172 10.2494 11.3346 10.2495 11.4987V26.4987C10.2494 26.6629 10.2817 26.8255 10.3445 26.9772C10.4073 27.1289 10.4993 27.2667 10.6154 27.3828C10.7315 27.4989 10.8694 27.591 11.0211 27.6538C11.1728 27.7166 11.3354 27.7488 11.4995 27.7487H16.4995C16.6637 27.7488 16.8263 27.7166 16.978 27.6538C17.1297 27.591 17.2675 27.4989 17.3836 27.3828C17.4997 27.2667 17.5918 27.1289 17.6546 26.9772C17.7174 26.8255 17.7496 26.6629 17.7495 26.4987V19.6237C17.7495 19.2922 17.8812 18.9743 18.1157 18.7399C18.3501 18.5054 18.668 18.3737 18.9995 18.3737C19.3311 18.3737 19.649 18.5054 19.8834 18.7399C20.1178 18.9743 20.2495 19.2922 20.2495 19.6237V26.4987C20.2494 26.6629 20.2817 26.8255 20.3445 26.9772C20.4073 27.1289 20.4993 27.2667 20.6154 27.3828C20.7315 27.4989 20.8694 27.591 21.0211 27.6538C21.1728 27.7166 21.3354 27.7488 21.4995 27.7487H26.4995C26.6637 27.7488 26.8263 27.7166 26.978 27.6538C27.1297 27.591 27.2675 27.4989 27.3836 27.3828C27.4997 27.2667 27.5918 27.1289 27.6546 26.9772C27.7174 26.8255 27.7496 26.6629 27.7495 26.4987V17.1237C27.7473 15.3011 27.0222 13.5537 25.7334 12.2649C24.4446 10.9761 22.6972 10.251 20.8745 10.2487ZM25.2495 25.2487H22.7495V19.6237C22.7495 18.6292 22.3545 17.6754 21.6512 16.9721C20.9479 16.2688 19.9941 15.8737 18.9995 15.8737C18.005 15.8737 17.0511 16.2688 16.3479 16.9721C15.6446 17.6754 15.2495 18.6292 15.2495 19.6237V25.2487H12.7495V12.7487H15.2495V13.6277C15.2497 13.8867 15.3302 14.1392 15.4801 14.3505C15.6299 14.5617 15.8417 14.7212 16.0861 14.807C16.3305 14.8927 16.5955 14.9005 16.8444 14.8292C17.0934 14.7579 17.3141 14.611 17.4761 14.4089C18.0371 13.6964 18.8065 13.177 19.677 12.923C20.5475 12.669 21.4756 12.6931 22.3317 12.9921C23.1878 13.2911 23.9291 13.85 24.4522 14.5907C24.9753 15.3314 25.2541 16.217 25.2495 17.1237V25.2487ZM7.74954 10.2487H2.74954C2.58536 10.2486 2.42277 10.2809 2.27107 10.3437C2.11937 10.4065 1.98154 10.4986 1.86544 10.6147C1.74935 10.7307 1.65728 10.8686 1.5945 11.0203C1.53171 11.172 1.49944 11.3346 1.49954 11.4987V26.4987C1.49944 26.6629 1.53171 26.8255 1.59449 26.9772C1.65728 27.1289 1.74935 27.2667 1.86544 27.3828C1.98153 27.4989 2.11937 27.591 2.27107 27.6538C2.42277 27.7166 2.58536 27.7488 2.74954 27.7487H7.74954C7.91372 27.7488 8.0763 27.7166 8.228 27.6538C8.3797 27.591 8.51754 27.4989 8.63363 27.3828C8.74972 27.2667 8.84179 27.1289 8.90458 26.9772C8.96736 26.8255 8.99963 26.6629 8.99954 26.4987V11.4987C8.99963 11.3346 8.96736 11.172 8.90458 11.0203C8.84179 10.8686 8.74972 10.7307 8.63363 10.6147C8.51754 10.4986 8.3797 10.4065 8.228 10.3437C8.0763 10.2809 7.91371 10.2486 7.74954 10.2487ZM6.49954 25.2487H3.99954V12.7487H6.49954V25.2487ZM5.26785 0.927493C4.7208 0.894748 4.17281 0.973615 3.65719 1.1593C3.14158 1.34498 2.66913 1.6336 2.26856 2.00761C1.86799 2.38161 1.54768 2.83319 1.32711 3.33487C1.10654 3.83655 0.990315 4.37785 0.985507 4.92586C0.980699 5.47386 1.08741 6.01712 1.29914 6.5226C1.51088 7.02807 1.82321 7.48519 2.21716 7.86617C2.6111 8.24715 3.07842 8.54401 3.5907 8.73871C4.10297 8.93342 4.6495 9.02189 5.19704 8.99874H5.23244C5.78093 9.03132 6.33031 8.95172 6.84701 8.76481C7.3637 8.57789 7.83685 8.28759 8.23756 7.91163C8.63827 7.53567 8.95811 7.08196 9.17755 6.57822C9.39698 6.07447 9.5114 5.53128 9.51381 4.98182C9.51622 4.43236 9.40657 3.88818 9.19156 3.38253C8.97655 2.87688 8.6607 2.42038 8.26331 2.04093C7.86592 1.66147 7.39533 1.36702 6.88029 1.17558C6.36526 0.984143 5.8166 0.899727 5.26784 0.927493H5.26785ZM5.23245 6.49874H5.19704C4.98087 6.52499 4.76159 6.50472 4.5539 6.43928C4.34621 6.37384 4.15491 6.26475 3.99284 6.11932C3.83077 5.9739 3.70166 5.7955 3.61418 5.59609C3.5267 5.39668 3.48287 5.18087 3.48562 4.96313C3.48562 4.03051 4.18509 3.42748 5.26785 3.42748C5.48622 3.39837 5.7083 3.41639 5.91912 3.48034C6.12994 3.54428 6.32461 3.65266 6.49002 3.79817C6.65543 3.94369 6.78773 4.12296 6.87802 4.32391C6.96831 4.52486 7.01449 4.74283 7.01345 4.96313C7.01345 5.89574 6.31399 6.49874 5.23245 6.49874Z" fill="#8E8E8E"/>
</svg>
