<svg width="23" height="22" viewBox="0 0 23 22" fill="none" xmlns="http://www.w3.org/2000/svg">
<path d="M14.236 7.65641L9.54574 12.1356L7.74177 10.4168C7.64376 10.3078 7.52314 10.2192 7.3875 10.1567C7.25186 10.0942 7.10412 10.059 6.95355 10.0535C6.80298 10.048 6.65283 10.0721 6.51253 10.1245C6.37223 10.1769 6.24481 10.2563 6.13826 10.3578C6.03171 10.4593 5.94834 10.5807 5.89337 10.7144C5.83841 10.8481 5.81304 10.9911 5.81885 11.1346C5.82467 11.2781 5.86155 11.4188 5.92717 11.548C5.99279 11.6773 6.08575 11.7922 6.2002 11.8856L8.76948 14.3439C8.87164 14.4405 8.9928 14.5168 9.12601 14.5687C9.25921 14.6205 9.40185 14.6468 9.54574 14.646C9.83256 14.6448 10.1074 14.5364 10.3111 14.3439L15.7776 9.13558C15.8801 9.03874 15.9614 8.92353 16.0169 8.7966C16.0724 8.66966 16.101 8.53351 16.101 8.396C16.101 8.25848 16.0724 8.12233 16.0169 7.99539C15.9614 7.86846 15.8801 7.75325 15.7776 7.65641C15.5728 7.4624 15.2957 7.3535 15.0068 7.3535C14.718 7.3535 14.4409 7.4624 14.236 7.65641ZM11.2622 0.583496C9.09987 0.583496 6.98606 1.19442 5.18812 2.33902C3.39017 3.48362 1.98884 5.11048 1.16134 7.01388C0.333839 8.91727 0.117326 11.0117 0.539184 13.0324C0.961041 15.053 2.00232 16.9091 3.53135 18.3659C5.06037 19.8227 7.00847 20.8147 9.12929 21.2167C11.2501 21.6186 13.4484 21.4123 15.4462 20.6239C17.4439 19.8355 19.1515 18.5004 20.3528 16.7874C21.5541 15.0743 22.1954 13.0604 22.1954 11.0002C22.1954 9.63223 21.9126 8.27768 21.3631 7.01388C20.8137 5.75007 20.0084 4.60174 18.9931 3.63447C17.9779 2.66719 16.7726 1.8999 15.4462 1.37642C14.1197 0.852931 12.698 0.583496 11.2622 0.583496V0.583496ZM11.2622 19.3335C9.53234 19.3335 7.84129 18.8448 6.40294 17.9291C4.96458 17.0134 3.84352 15.7119 3.18152 14.1892C2.51952 12.6665 2.34631 10.9909 2.68379 9.37441C3.02128 7.7579 3.8543 6.27304 5.07752 5.10761C6.30075 3.94217 7.85922 3.1485 9.55588 2.82695C11.2525 2.50541 13.0112 2.67044 14.6094 3.30117C16.2076 3.9319 17.5736 5 18.5347 6.37041C19.4958 7.74082 20.0087 9.35198 20.0087 11.0002C20.0087 13.2103 19.0872 15.3299 17.447 16.8927C15.8067 18.4555 13.582 19.3335 11.2622 19.3335V19.3335Z" fill="white"/>
</svg>
