<svg width="24" height="24" viewBox="0 0 24 24" fill="none" xmlns="http://www.w3.org/2000/svg">
<path d="M11.9314 2.08881L15.621 2.66859C17.2337 2.92202 18.04 3.04874 18.52 3.61003C19 4.17132 19 4.98758 19 6.6201V17.3791C19 19.0116 19 19.8279 18.52 20.3891C18.04 20.9504 17.2337 21.0771 15.621 21.3306L11.9314 21.9104C8.71084 22.4165 7.10055 22.6695 6.05027 21.7714C5 20.8733 5 19.2432 5 15.9831V8.01607C5 4.75596 5 3.12591 6.05027 2.22779C7.10055 1.32967 8.71084 1.58272 11.9314 2.08881Z" fill="#4098FF"/>
<path d="M14.4243 12.4243C14.6586 12.1899 14.6586 11.8101 14.4243 11.5757L10.6059 7.75736C10.3716 7.52304 9.99167 7.52304 9.75736 7.75736C9.52304 7.99167 9.52304 8.37157 9.75736 8.60589L13.1515 12L9.75736 15.3941C9.52304 15.6284 9.52304 16.0083 9.75736 16.2426C9.99167 16.477 10.3716 16.477 10.6059 16.2426L14.4243 12.4243ZM5 12.6L14 12.6V11.4L5 11.4V12.6Z" fill="white"/>
</svg>
