<svg width="117" height="141" viewBox="0 0 117 141" fill="none" xmlns="http://www.w3.org/2000/svg">
<circle cx="64" cy="122" r="4" fill="#D9D9D9"/>
<circle cx="64" cy="122" r="3" fill="#DE4747"/>
<rect x="19" y="118" width="35" height="8" rx="4" fill="#C4E6FF"/>
<rect x="73" y="118" width="35" height="8" rx="4" fill="#C4E6FF"/>
<rect x="0.5" y="0.5" width="116" height="140" rx="4.5" stroke="black"/>
<circle cx="12" cy="122" r="4" fill="#D9D9D9"/>
<circle cx="12" cy="122" r="3" fill="#00A98F"/>
<rect x="8" y="10" width="100" height="15" rx="5" fill="#C4E6FF"/>
<path d="M47.0656 17.43C47.519 17.5033 47.8823 17.7067 48.1556 18.04C48.4356 18.3667 48.5756 18.7433 48.5756 19.17C48.5756 19.5167 48.4823 19.83 48.2956 20.11C48.1156 20.3833 47.8523 20.6 47.5056 20.76C47.159 20.92 46.7556 21 46.2956 21H43.5156V14.05H46.1656C46.639 14.05 47.0456 14.13 47.3856 14.29C47.7256 14.45 47.9823 14.67 48.1556 14.95C48.329 15.23 48.4156 15.5433 48.4156 15.89C48.4156 16.2833 48.299 16.61 48.0656 16.87C47.8323 17.1233 47.499 17.31 47.0656 17.43ZM44.6556 17H46.0656C46.439 17 46.729 16.91 46.9356 16.73C47.149 16.55 47.2556 16.3 47.2556 15.98C47.2556 15.6533 47.149 15.4 46.9356 15.22C46.729 15.0333 46.439 14.94 46.0656 14.94H44.6556V17ZM46.1956 20.11C46.5823 20.11 46.8856 20.0133 47.1056 19.82C47.3256 19.6267 47.4356 19.3567 47.4356 19.01C47.4356 18.67 47.319 18.4 47.0856 18.2C46.8523 17.9933 46.5423 17.89 46.1556 17.89H44.6556V20.11H46.1956ZM52.0345 15.4C52.4678 15.4 52.8478 15.5 53.1745 15.7C53.5078 15.8933 53.7645 16.15 53.9445 16.47V15.49H55.0945V21H53.9445V19.97C53.7578 20.31 53.5011 20.5833 53.1745 20.79C52.8478 20.99 52.4678 21.09 52.0345 21.09C51.5545 21.09 51.1145 20.97 50.7145 20.73C50.3211 20.4833 50.0078 20.1433 49.7745 19.71C49.5478 19.27 49.4345 18.7733 49.4345 18.22C49.4345 17.6667 49.5478 17.1767 49.7745 16.75C50.0078 16.3233 50.3211 15.9933 50.7145 15.76C51.1145 15.52 51.5545 15.4 52.0345 15.4ZM52.2745 16.39C51.9811 16.39 51.7078 16.4633 51.4545 16.61C51.2011 16.75 50.9945 16.96 50.8345 17.24C50.6811 17.5133 50.6045 17.84 50.6045 18.22C50.6045 18.6 50.6811 18.9333 50.8345 19.22C50.9945 19.5067 51.2011 19.7267 51.4545 19.88C51.7145 20.0267 51.9878 20.1 52.2745 20.1C52.5678 20.1 52.8411 20.0267 53.0945 19.88C53.3478 19.7333 53.5511 19.52 53.7045 19.24C53.8645 18.9533 53.9445 18.62 53.9445 18.24C53.9445 17.86 53.8645 17.53 53.7045 17.25C53.5511 16.97 53.3478 16.7567 53.0945 16.61C52.8411 16.4633 52.5678 16.39 52.2745 16.39ZM60.6818 19.47C60.6818 19.89 60.5218 20.2467 60.2018 20.54C59.8818 20.8267 59.4585 21.0033 58.9318 21.07V21.48C59.3185 21.48 59.6318 21.57 59.8718 21.75C60.1118 21.9367 60.2318 22.1967 60.2318 22.53C60.2318 22.8633 60.1118 23.1267 59.8718 23.32C59.6318 23.52 59.3285 23.62 58.9618 23.62H57.6418V22.9H58.7318C58.9185 22.9 59.0585 22.8733 59.1518 22.82C59.2451 22.7667 59.2918 22.67 59.2918 22.53C59.2918 22.39 59.2451 22.2933 59.1518 22.24C59.0585 22.1867 58.9185 22.16 58.7318 22.16H58.1818V21.07C57.6351 21.0167 57.1985 20.84 56.8718 20.54C56.5451 20.24 56.3651 19.8333 56.3318 19.32H57.5118C57.5318 19.5933 57.6318 19.8067 57.8118 19.96C57.9918 20.1133 58.2318 20.19 58.5318 20.19C58.8518 20.19 59.1018 20.1233 59.2818 19.99C59.4685 19.85 59.5618 19.67 59.5618 19.45C59.5618 19.27 59.5018 19.1267 59.3818 19.02C59.2685 18.9133 59.1218 18.8333 58.9418 18.78C58.7618 18.72 58.5185 18.6567 58.2118 18.59C57.8118 18.4967 57.4885 18.4067 57.2418 18.32C56.9951 18.2267 56.7818 18.08 56.6018 17.88C56.4285 17.68 56.3418 17.41 56.3418 17.07C56.3418 16.7633 56.4285 16.4833 56.6018 16.23C56.7751 15.9767 57.0251 15.7767 57.3518 15.63C57.6851 15.4767 58.0751 15.4 58.5218 15.4C59.1351 15.4 59.6285 15.56 60.0018 15.88C60.3818 16.1933 60.5851 16.6233 60.6118 17.17H59.4418C59.4218 16.8967 59.3251 16.6833 59.1518 16.53C58.9851 16.3767 58.7485 16.3 58.4418 16.3C58.1351 16.3 57.8951 16.37 57.7218 16.51C57.5485 16.6433 57.4618 16.8167 57.4618 17.03C57.4618 17.2033 57.5185 17.3433 57.6318 17.45C57.7451 17.5567 57.8885 17.64 58.0618 17.7C58.2418 17.7533 58.4818 17.8133 58.7818 17.88C59.1885 17.9733 59.5151 18.0667 59.7618 18.16C60.0151 18.2533 60.2318 18.4067 60.4118 18.62C60.5918 18.8267 60.6818 19.11 60.6818 19.47ZM63.0736 13.6V21H61.9336V13.6H63.0736ZM65.7103 15.49V21H64.5703V15.49H65.7103ZM69.427 15.4C69.8604 15.4 70.2404 15.5 70.567 15.7C70.9004 15.8933 71.157 16.15 71.337 16.47V15.49H72.487V23.62H71.337V19.97C71.1504 20.31 70.8937 20.5833 70.567 20.79C70.2404 20.99 69.8604 21.09 69.427 21.09C68.947 21.09 68.507 20.97 68.107 20.73C67.7137 20.4833 67.4004 20.1433 67.167 19.71C66.9404 19.27 66.827 18.7733 66.827 18.22C66.827 17.6667 66.9404 17.1767 67.167 16.75C67.4004 16.3233 67.7137 15.9933 68.107 15.76C68.507 15.52 68.947 15.4 69.427 15.4ZM69.667 16.39C69.3737 16.39 69.1004 16.4633 68.847 16.61C68.5937 16.75 68.387 16.96 68.227 17.24C68.0737 17.5133 67.997 17.84 67.997 18.22C67.997 18.6 68.0737 18.9333 68.227 19.22C68.387 19.5067 68.5937 19.7267 68.847 19.88C69.107 20.0267 69.3804 20.1 69.667 20.1C69.9604 20.1 70.2337 20.0267 70.487 19.88C70.7404 19.7333 70.9437 19.52 71.097 19.24C71.257 18.9533 71.337 18.62 71.337 18.24C71.337 17.86 71.257 17.53 71.097 17.25C70.9437 16.97 70.7404 16.7567 70.487 16.61C70.2337 16.4633 69.9604 16.39 69.667 16.39Z" fill="black"/>
<rect x="8" y="31" width="100" height="15" rx="5" fill="#C4E6FF"/>
<path d="M47.0656 38.43C47.519 38.5033 47.8823 38.7067 48.1556 39.04C48.4356 39.3667 48.5756 39.7433 48.5756 40.17C48.5756 40.5167 48.4823 40.83 48.2956 41.11C48.1156 41.3833 47.8523 41.6 47.5056 41.76C47.159 41.92 46.7556 42 46.2956 42H43.5156V35.05H46.1656C46.639 35.05 47.0456 35.13 47.3856 35.29C47.7256 35.45 47.9823 35.67 48.1556 35.95C48.329 36.23 48.4156 36.5433 48.4156 36.89C48.4156 37.2833 48.299 37.61 48.0656 37.87C47.8323 38.1233 47.499 38.31 47.0656 38.43ZM44.6556 38H46.0656C46.439 38 46.729 37.91 46.9356 37.73C47.149 37.55 47.2556 37.3 47.2556 36.98C47.2556 36.6533 47.149 36.4 46.9356 36.22C46.729 36.0333 46.439 35.94 46.0656 35.94H44.6556V38ZM46.1956 41.11C46.5823 41.11 46.8856 41.0133 47.1056 40.82C47.3256 40.6267 47.4356 40.3567 47.4356 40.01C47.4356 39.67 47.319 39.4 47.0856 39.2C46.8523 38.9933 46.5423 38.89 46.1556 38.89H44.6556V41.11H46.1956ZM52.0345 36.4C52.4678 36.4 52.8478 36.5 53.1745 36.7C53.5078 36.8933 53.7645 37.15 53.9445 37.47V36.49H55.0945V42H53.9445V40.97C53.7578 41.31 53.5011 41.5833 53.1745 41.79C52.8478 41.99 52.4678 42.09 52.0345 42.09C51.5545 42.09 51.1145 41.97 50.7145 41.73C50.3211 41.4833 50.0078 41.1433 49.7745 40.71C49.5478 40.27 49.4345 39.7733 49.4345 39.22C49.4345 38.6667 49.5478 38.1767 49.7745 37.75C50.0078 37.3233 50.3211 36.9933 50.7145 36.76C51.1145 36.52 51.5545 36.4 52.0345 36.4ZM52.2745 37.39C51.9811 37.39 51.7078 37.4633 51.4545 37.61C51.2011 37.75 50.9945 37.96 50.8345 38.24C50.6811 38.5133 50.6045 38.84 50.6045 39.22C50.6045 39.6 50.6811 39.9333 50.8345 40.22C50.9945 40.5067 51.2011 40.7267 51.4545 40.88C51.7145 41.0267 51.9878 41.1 52.2745 41.1C52.5678 41.1 52.8411 41.0267 53.0945 40.88C53.3478 40.7333 53.5511 40.52 53.7045 40.24C53.8645 39.9533 53.9445 39.62 53.9445 39.24C53.9445 38.86 53.8645 38.53 53.7045 38.25C53.5511 37.97 53.3478 37.7567 53.0945 37.61C52.8411 37.4633 52.5678 37.39 52.2745 37.39ZM60.6818 40.47C60.6818 40.89 60.5218 41.2467 60.2018 41.54C59.8818 41.8267 59.4585 42.0033 58.9318 42.07V42.48C59.3185 42.48 59.6318 42.57 59.8718 42.75C60.1118 42.9367 60.2318 43.1967 60.2318 43.53C60.2318 43.8633 60.1118 44.1267 59.8718 44.32C59.6318 44.52 59.3285 44.62 58.9618 44.62H57.6418V43.9H58.7318C58.9185 43.9 59.0585 43.8733 59.1518 43.82C59.2451 43.7667 59.2918 43.67 59.2918 43.53C59.2918 43.39 59.2451 43.2933 59.1518 43.24C59.0585 43.1867 58.9185 43.16 58.7318 43.16H58.1818V42.07C57.6351 42.0167 57.1985 41.84 56.8718 41.54C56.5451 41.24 56.3651 40.8333 56.3318 40.32H57.5118C57.5318 40.5933 57.6318 40.8067 57.8118 40.96C57.9918 41.1133 58.2318 41.19 58.5318 41.19C58.8518 41.19 59.1018 41.1233 59.2818 40.99C59.4685 40.85 59.5618 40.67 59.5618 40.45C59.5618 40.27 59.5018 40.1267 59.3818 40.02C59.2685 39.9133 59.1218 39.8333 58.9418 39.78C58.7618 39.72 58.5185 39.6567 58.2118 39.59C57.8118 39.4967 57.4885 39.4067 57.2418 39.32C56.9951 39.2267 56.7818 39.08 56.6018 38.88C56.4285 38.68 56.3418 38.41 56.3418 38.07C56.3418 37.7633 56.4285 37.4833 56.6018 37.23C56.7751 36.9767 57.0251 36.7767 57.3518 36.63C57.6851 36.4767 58.0751 36.4 58.5218 36.4C59.1351 36.4 59.6285 36.56 60.0018 36.88C60.3818 37.1933 60.5851 37.6233 60.6118 38.17H59.4418C59.4218 37.8967 59.3251 37.6833 59.1518 37.53C58.9851 37.3767 58.7485 37.3 58.4418 37.3C58.1351 37.3 57.8951 37.37 57.7218 37.51C57.5485 37.6433 57.4618 37.8167 57.4618 38.03C57.4618 38.2033 57.5185 38.3433 57.6318 38.45C57.7451 38.5567 57.8885 38.64 58.0618 38.7C58.2418 38.7533 58.4818 38.8133 58.7818 38.88C59.1885 38.9733 59.5151 39.0667 59.7618 39.16C60.0151 39.2533 60.2318 39.4067 60.4118 39.62C60.5918 39.8267 60.6818 40.11 60.6818 40.47ZM63.0736 34.6V42H61.9336V34.6H63.0736ZM65.7103 36.49V42H64.5703V36.49H65.7103ZM69.427 36.4C69.8604 36.4 70.2404 36.5 70.567 36.7C70.9004 36.8933 71.157 37.15 71.337 37.47V36.49H72.487V44.62H71.337V40.97C71.1504 41.31 70.8937 41.5833 70.567 41.79C70.2404 41.99 69.8604 42.09 69.427 42.09C68.947 42.09 68.507 41.97 68.107 41.73C67.7137 41.4833 67.4004 41.1433 67.167 40.71C66.9404 40.27 66.827 39.7733 66.827 39.22C66.827 38.6667 66.9404 38.1767 67.167 37.75C67.4004 37.3233 67.7137 36.9933 68.107 36.76C68.507 36.52 68.947 36.4 69.427 36.4ZM69.667 37.39C69.3737 37.39 69.1004 37.4633 68.847 37.61C68.5937 37.75 68.387 37.96 68.227 38.24C68.0737 38.5133 67.997 38.84 67.997 39.22C67.997 39.6 68.0737 39.9333 68.227 40.22C68.387 40.5067 68.5937 40.7267 68.847 40.88C69.107 41.0267 69.3804 41.1 69.667 41.1C69.9604 41.1 70.2337 41.0267 70.487 40.88C70.7404 40.7333 70.9437 40.52 71.097 40.24C71.257 39.9533 71.337 39.62 71.337 39.24C71.337 38.86 71.257 38.53 71.097 38.25C70.9437 37.97 70.7404 37.7567 70.487 37.61C70.2337 37.4633 69.9604 37.39 69.667 37.39Z" fill="black"/>
<rect x="8" y="52" width="100" height="34" rx="5" fill="#C4E6FF"/>
<path d="M32.4107 66.05L30.1107 70.48V73H28.9707V70.48L26.6607 66.05H27.9307L29.5307 69.44L31.1307 66.05H32.4107ZM35.5354 67.4C35.9688 67.4 36.3488 67.5 36.6754 67.7C37.0088 67.8933 37.2654 68.15 37.4454 68.47V67.49H38.5954V73H37.4454V71.97C37.2588 72.31 37.0021 72.5833 36.6754 72.79C36.3488 72.99 35.9688 73.09 35.5354 73.09C35.0554 73.09 34.6154 72.97 34.2154 72.73C33.8221 72.4833 33.5088 72.1433 33.2754 71.71C33.0488 71.27 32.9354 70.7733 32.9354 70.22C32.9354 69.6667 33.0488 69.1767 33.2754 68.75C33.5088 68.3233 33.8221 67.9933 34.2154 67.76C34.6154 67.52 35.0554 67.4 35.5354 67.4ZM35.7754 68.39C35.4821 68.39 35.2088 68.4633 34.9554 68.61C34.7021 68.75 34.4954 68.96 34.3354 69.24C34.1821 69.5133 34.1054 69.84 34.1054 70.22C34.1054 70.6 34.1821 70.9333 34.3354 71.22C34.4954 71.5067 34.7021 71.7267 34.9554 71.88C35.2154 72.0267 35.4888 72.1 35.7754 72.1C36.0688 72.1 36.3421 72.0267 36.5954 71.88C36.8488 71.7333 37.0521 71.52 37.2054 71.24C37.3654 70.9533 37.4454 70.62 37.4454 70.24C37.4454 69.86 37.3654 69.53 37.2054 69.25C37.0521 68.97 36.8488 68.7567 36.5954 68.61C36.3421 68.4633 36.0688 68.39 35.7754 68.39ZM41.1028 72.07H43.6028V73H39.7828V72.07L42.2928 68.42H39.7828V67.49H43.6028V68.42L41.1028 72.07ZM45.9398 67.49V73H44.7998V67.49H45.9398ZM53.4946 67.4C53.9746 67.4 54.4112 67.52 54.8046 67.76C55.2046 67.9933 55.5179 68.3233 55.7446 68.75C55.9712 69.1767 56.0846 69.6667 56.0846 70.22C56.0846 70.7733 55.9712 71.27 55.7446 71.71C55.5179 72.1433 55.2046 72.4833 54.8046 72.73C54.4112 72.97 53.9746 73.09 53.4946 73.09C53.0612 73.09 52.6812 72.99 52.3546 72.79C52.0279 72.5833 51.7679 72.31 51.5746 71.97V73H50.4346V65.6H51.5746V68.47C51.7612 68.15 52.0179 67.8933 52.3446 67.7C52.6779 67.5 53.0612 67.4 53.4946 67.4ZM53.2446 68.39C52.9579 68.39 52.6846 68.4633 52.4246 68.61C52.1712 68.7567 51.9646 68.97 51.8046 69.25C51.6512 69.53 51.5746 69.86 51.5746 70.24C51.5746 70.62 51.6512 70.9533 51.8046 71.24C51.9646 71.52 52.1712 71.7333 52.4246 71.88C52.6846 72.0267 52.9579 72.1 53.2446 72.1C53.5379 72.1 53.8112 72.0267 54.0646 71.88C54.3246 71.7267 54.5312 71.5067 54.6846 71.22C54.8446 70.9333 54.9246 70.6 54.9246 70.22C54.9246 69.84 54.8446 69.5133 54.6846 69.24C54.5312 68.96 54.3246 68.75 54.0646 68.61C53.8112 68.4633 53.5379 68.39 53.2446 68.39ZM59.6519 67.4C60.1786 67.4 60.6552 67.5167 61.0819 67.75C61.5086 67.9833 61.8452 68.3167 62.0919 68.75C62.3386 69.1833 62.4619 69.68 62.4619 70.24C62.4619 70.8 62.3352 71.2967 62.0819 71.73C61.8286 72.1633 61.4819 72.5 61.0419 72.74C60.6086 72.9733 60.1286 73.09 59.6019 73.09C59.0819 73.09 58.6119 72.9733 58.1919 72.74C57.7719 72.5 57.4419 72.1667 57.2019 71.74C56.9619 71.3067 56.8419 70.8067 56.8419 70.24C56.8419 69.68 56.9652 69.1833 57.2119 68.75C57.4586 68.3167 57.7952 67.9833 58.2219 67.75C58.6486 67.5167 59.1252 67.4 59.6519 67.4ZM59.6319 68.36C59.3386 68.36 59.0686 68.4333 58.8219 68.58C58.5752 68.72 58.3752 68.9333 58.2219 69.22C58.0752 69.5 58.0019 69.84 58.0019 70.24C58.0019 70.64 58.0719 70.9833 58.2119 71.27C58.3586 71.5567 58.5519 71.7733 58.7919 71.92C59.0386 72.06 59.3086 72.13 59.6019 72.13C59.8952 72.13 60.1686 72.0567 60.4219 71.91C60.6819 71.7633 60.8919 71.55 61.0519 71.27C61.2119 70.9833 61.2919 70.64 61.2919 70.24C61.2919 69.84 61.2152 69.5 61.0619 69.22C60.9086 68.9333 60.7052 68.72 60.4519 68.58C60.1986 68.4333 59.9252 68.36 59.6319 68.36ZM58.1919 66.2C58.1919 66.0333 58.2486 65.8933 58.3619 65.78C58.4819 65.66 58.6252 65.6 58.7919 65.6C58.9586 65.6 59.0986 65.66 59.2119 65.78C59.3319 65.8933 59.3919 66.0333 59.3919 66.2C59.3919 66.3667 59.3319 66.51 59.2119 66.63C59.0986 66.7433 58.9586 66.8 58.7919 66.8C58.6252 66.8 58.4819 66.7433 58.3619 66.63C58.2486 66.51 58.1919 66.3667 58.1919 66.2ZM59.9119 66.2C59.9119 66.0333 59.9686 65.8933 60.0819 65.78C60.2019 65.66 60.3452 65.6 60.5119 65.6C60.6786 65.6 60.8186 65.66 60.9319 65.78C61.0519 65.8933 61.1119 66.0333 61.1119 66.2C61.1119 66.3667 61.0519 66.51 60.9319 66.63C60.8186 66.7433 60.6786 66.8 60.5119 66.8C60.3452 66.8 60.2019 66.7433 60.0819 66.63C59.9686 66.51 59.9119 66.3667 59.9119 66.2ZM64.7289 65.6V73H63.5889V65.6H64.7289ZM72.9956 67.4C73.4089 67.4 73.7789 67.49 74.1056 67.67C74.4323 67.85 74.6889 68.1167 74.8756 68.47C75.0689 68.8233 75.1656 69.25 75.1656 69.75V73H74.0256V69.92C74.0256 69.4267 73.9023 69.05 73.6556 68.79C73.4089 68.5233 73.0723 68.39 72.6456 68.39C72.2189 68.39 71.8823 68.5233 71.6356 68.79C71.3889 69.05 71.2656 69.4267 71.2656 69.92V73H70.1356V69.92C70.1356 69.4267 70.0123 69.05 69.7656 68.79C69.5189 68.5233 69.1823 68.39 68.7556 68.39C68.3289 68.39 67.9889 68.5233 67.7356 68.79C67.4889 69.05 67.3656 69.4267 67.3656 69.92V73H66.2256V67.49H67.3656V68.36C67.5456 68.0467 67.7856 67.81 68.0856 67.65C68.3923 67.4833 68.7389 67.4 69.1256 67.4C69.5523 67.4 69.9323 67.5 70.2656 67.7C70.5989 67.9 70.8523 68.19 71.0256 68.57C71.2189 68.2033 71.4856 67.9167 71.8256 67.71C72.1723 67.5033 72.5623 67.4 72.9956 67.4ZM78.3762 67.54C78.8895 67.54 79.3395 67.6433 79.7262 67.85C80.1129 68.0567 80.4129 68.3633 80.6262 68.77C80.8462 69.1767 80.9562 69.68 80.9562 70.28C80.9562 70.8667 80.8562 71.37 80.6562 71.79C80.4629 72.21 80.1862 72.5333 79.8262 72.76C79.4729 72.9867 79.0595 73.1 78.5862 73.1C78.1329 73.1 77.7395 73 77.4062 72.8C77.0729 72.6 76.8162 72.32 76.6362 71.96C76.4629 71.5933 76.3762 71.1667 76.3762 70.68V70.15H80.0462C80.0329 69.5433 79.8762 69.0833 79.5762 68.77C79.2829 68.45 78.8695 68.29 78.3362 68.29C77.9962 68.29 77.6929 68.3233 77.4262 68.39C77.1662 68.45 76.8962 68.54 76.6162 68.66V67.89C76.8895 67.77 77.1595 67.6833 77.4262 67.63C77.6929 67.57 78.0095 67.54 78.3762 67.54ZM77.2962 70.85C77.3029 71.15 77.3495 71.4167 77.4362 71.65C77.5295 71.8767 77.6729 72.0567 77.8662 72.19C78.0595 72.3167 78.3029 72.38 78.5962 72.38C79.0162 72.38 79.3462 72.2467 79.5862 71.98C79.8329 71.7067 79.9795 71.33 80.0262 70.85H77.2962ZM84.1907 67.4C84.8041 67.4 85.2974 67.56 85.6707 67.88C86.0507 68.1933 86.2541 68.6233 86.2807 69.17H85.1107C85.0907 68.8967 84.9941 68.6833 84.8207 68.53C84.6541 68.3767 84.4174 68.3 84.1107 68.3C83.8041 68.3 83.5641 68.37 83.3907 68.51C83.2174 68.6433 83.1307 68.8167 83.1307 69.03C83.1307 69.2033 83.1874 69.3433 83.3007 69.45C83.4141 69.5567 83.5574 69.64 83.7307 69.7C83.9107 69.7533 84.1507 69.8133 84.4507 69.88C84.8574 69.9733 85.1841 70.0667 85.4307 70.16C85.6841 70.2533 85.9007 70.4067 86.0807 70.62C86.2607 70.8267 86.3507 71.11 86.3507 71.47C86.3507 71.7833 86.2574 72.0633 86.0707 72.31C85.8907 72.5567 85.6374 72.75 85.3107 72.89C84.9841 73.0233 84.6141 73.09 84.2007 73.09C83.5607 73.09 83.0441 72.9367 82.6507 72.63C82.2574 72.3233 82.0407 71.8867 82.0007 71.32H83.1807C83.2007 71.5933 83.3007 71.8067 83.4807 71.96C83.6607 72.1133 83.9007 72.19 84.2007 72.19C84.5207 72.19 84.7707 72.1233 84.9507 71.99C85.1374 71.85 85.2307 71.67 85.2307 71.45C85.2307 71.27 85.1707 71.1267 85.0507 71.02C84.9374 70.9133 84.7907 70.8333 84.6107 70.78C84.4307 70.72 84.1874 70.6567 83.8807 70.59C83.4807 70.4967 83.1574 70.4067 82.9107 70.32C82.6641 70.2267 82.4507 70.08 82.2707 69.88C82.0974 69.68 82.0107 69.41 82.0107 69.07C82.0107 68.7633 82.0974 68.4833 82.2707 68.23C82.4441 67.9767 82.6941 67.7767 83.0207 67.63C83.3541 67.4767 83.7441 67.4 84.1907 67.4ZM87.4525 66.03C87.4525 65.8233 87.5225 65.65 87.6625 65.51C87.8025 65.37 87.9759 65.3 88.1825 65.3C88.3825 65.3 88.5525 65.37 88.6925 65.51C88.8325 65.65 88.9025 65.8233 88.9025 66.03C88.9025 66.2367 88.8325 66.41 88.6925 66.55C88.5525 66.69 88.3825 66.76 88.1825 66.76C87.9759 66.76 87.8025 66.69 87.6625 66.55C87.5225 66.41 87.4525 66.2367 87.4525 66.03ZM88.7425 67.49V73H87.6025V67.49H88.7425Z" fill="black"/>
<rect x="8" y="92" width="100" height="15" rx="5" fill="#C4E6FF"/>
<path d="M47.0656 99.43C47.519 99.5033 47.8823 99.7067 48.1556 100.04C48.4356 100.367 48.5756 100.743 48.5756 101.17C48.5756 101.517 48.4823 101.83 48.2956 102.11C48.1156 102.383 47.8523 102.6 47.5056 102.76C47.159 102.92 46.7556 103 46.2956 103H43.5156V96.05H46.1656C46.639 96.05 47.0456 96.13 47.3856 96.29C47.7256 96.45 47.9823 96.67 48.1556 96.95C48.329 97.23 48.4156 97.5433 48.4156 97.89C48.4156 98.2833 48.299 98.61 48.0656 98.87C47.8323 99.1233 47.499 99.31 47.0656 99.43ZM44.6556 99H46.0656C46.439 99 46.729 98.91 46.9356 98.73C47.149 98.55 47.2556 98.3 47.2556 97.98C47.2556 97.6533 47.149 97.4 46.9356 97.22C46.729 97.0333 46.439 96.94 46.0656 96.94H44.6556V99ZM46.1956 102.11C46.5823 102.11 46.8856 102.013 47.1056 101.82C47.3256 101.627 47.4356 101.357 47.4356 101.01C47.4356 100.67 47.319 100.4 47.0856 100.2C46.8523 99.9933 46.5423 99.89 46.1556 99.89H44.6556V102.11H46.1956ZM52.0345 97.4C52.4678 97.4 52.8478 97.5 53.1745 97.7C53.5078 97.8933 53.7645 98.15 53.9445 98.47V97.49H55.0945V103H53.9445V101.97C53.7578 102.31 53.5011 102.583 53.1745 102.79C52.8478 102.99 52.4678 103.09 52.0345 103.09C51.5545 103.09 51.1145 102.97 50.7145 102.73C50.3211 102.483 50.0078 102.143 49.7745 101.71C49.5478 101.27 49.4345 100.773 49.4345 100.22C49.4345 99.6667 49.5478 99.1767 49.7745 98.75C50.0078 98.3233 50.3211 97.9933 50.7145 97.76C51.1145 97.52 51.5545 97.4 52.0345 97.4ZM52.2745 98.39C51.9811 98.39 51.7078 98.4633 51.4545 98.61C51.2011 98.75 50.9945 98.96 50.8345 99.24C50.6811 99.5133 50.6045 99.84 50.6045 100.22C50.6045 100.6 50.6811 100.933 50.8345 101.22C50.9945 101.507 51.2011 101.727 51.4545 101.88C51.7145 102.027 51.9878 102.1 52.2745 102.1C52.5678 102.1 52.8411 102.027 53.0945 101.88C53.3478 101.733 53.5511 101.52 53.7045 101.24C53.8645 100.953 53.9445 100.62 53.9445 100.24C53.9445 99.86 53.8645 99.53 53.7045 99.25C53.5511 98.97 53.3478 98.7567 53.0945 98.61C52.8411 98.4633 52.5678 98.39 52.2745 98.39ZM60.6818 101.47C60.6818 101.89 60.5218 102.247 60.2018 102.54C59.8818 102.827 59.4585 103.003 58.9318 103.07V103.48C59.3185 103.48 59.6318 103.57 59.8718 103.75C60.1118 103.937 60.2318 104.197 60.2318 104.53C60.2318 104.863 60.1118 105.127 59.8718 105.32C59.6318 105.52 59.3285 105.62 58.9618 105.62H57.6418V104.9H58.7318C58.9185 104.9 59.0585 104.873 59.1518 104.82C59.2451 104.767 59.2918 104.67 59.2918 104.53C59.2918 104.39 59.2451 104.293 59.1518 104.24C59.0585 104.187 58.9185 104.16 58.7318 104.16H58.1818V103.07C57.6351 103.017 57.1985 102.84 56.8718 102.54C56.5451 102.24 56.3651 101.833 56.3318 101.32H57.5118C57.5318 101.593 57.6318 101.807 57.8118 101.96C57.9918 102.113 58.2318 102.19 58.5318 102.19C58.8518 102.19 59.1018 102.123 59.2818 101.99C59.4685 101.85 59.5618 101.67 59.5618 101.45C59.5618 101.27 59.5018 101.127 59.3818 101.02C59.2685 100.913 59.1218 100.833 58.9418 100.78C58.7618 100.72 58.5185 100.657 58.2118 100.59C57.8118 100.497 57.4885 100.407 57.2418 100.32C56.9951 100.227 56.7818 100.08 56.6018 99.88C56.4285 99.68 56.3418 99.41 56.3418 99.07C56.3418 98.7633 56.4285 98.4833 56.6018 98.23C56.7751 97.9767 57.0251 97.7767 57.3518 97.63C57.6851 97.4767 58.0751 97.4 58.5218 97.4C59.1351 97.4 59.6285 97.56 60.0018 97.88C60.3818 98.1933 60.5851 98.6233 60.6118 99.17H59.4418C59.4218 98.8967 59.3251 98.6833 59.1518 98.53C58.9851 98.3767 58.7485 98.3 58.4418 98.3C58.1351 98.3 57.8951 98.37 57.7218 98.51C57.5485 98.6433 57.4618 98.8167 57.4618 99.03C57.4618 99.2033 57.5185 99.3433 57.6318 99.45C57.7451 99.5567 57.8885 99.64 58.0618 99.7C58.2418 99.7533 58.4818 99.8133 58.7818 99.88C59.1885 99.9733 59.5151 100.067 59.7618 100.16C60.0151 100.253 60.2318 100.407 60.4118 100.62C60.5918 100.827 60.6818 101.11 60.6818 101.47ZM63.0736 95.6V103H61.9336V95.6H63.0736ZM65.7103 97.49V103H64.5703V97.49H65.7103ZM69.427 97.4C69.8604 97.4 70.2404 97.5 70.567 97.7C70.9004 97.8933 71.157 98.15 71.337 98.47V97.49H72.487V105.62H71.337V101.97C71.1504 102.31 70.8937 102.583 70.567 102.79C70.2404 102.99 69.8604 103.09 69.427 103.09C68.947 103.09 68.507 102.97 68.107 102.73C67.7137 102.483 67.4004 102.143 67.167 101.71C66.9404 101.27 66.827 100.773 66.827 100.22C66.827 99.6667 66.9404 99.1767 67.167 98.75C67.4004 98.3233 67.7137 97.9933 68.107 97.76C68.507 97.52 68.947 97.4 69.427 97.4ZM69.667 98.39C69.3737 98.39 69.1004 98.4633 68.847 98.61C68.5937 98.75 68.387 98.96 68.227 99.24C68.0737 99.5133 67.997 99.84 67.997 100.22C67.997 100.6 68.0737 100.933 68.227 101.22C68.387 101.507 68.5937 101.727 68.847 101.88C69.107 102.027 69.3804 102.1 69.667 102.1C69.9604 102.1 70.2337 102.027 70.487 101.88C70.7404 101.733 70.9437 101.52 71.097 101.24C71.257 100.953 71.337 100.62 71.337 100.24C71.337 99.86 71.257 99.53 71.097 99.25C70.9437 98.97 70.7404 98.7567 70.487 98.61C70.2337 98.4633 69.9604 98.39 69.667 98.39Z" fill="black"/>
</svg>
