<svg width="23" height="23" viewBox="0 0 23 23" fill="none" xmlns="http://www.w3.org/2000/svg">
<path fill-rule="evenodd" clip-rule="evenodd" d="M13.2948 4.70599L15.7507 2.25001C16.7678 1.23295 17.2763 0.724421 17.888 0.611606C18.1278 0.567372 18.3737 0.567372 18.6135 0.611606C19.2252 0.724421 19.7337 1.23294 20.7507 2.24999L20.7507 2.25C21.7678 3.26706 22.2763 3.77558 22.3891 4.38723C22.4334 4.62706 22.4334 4.87295 22.3891 5.11277C22.2763 5.72442 21.7678 6.23295 20.7507 7.25L18.3225 9.67822C16.2391 8.47972 14.5087 6.76237 13.2948 4.70599ZM11.8404 6.16033L2.85713 15.1436C2.43207 15.5687 2.21954 15.7812 2.0798 16.0423C1.94007 16.3034 1.88112 16.5981 1.76323 17.1876L0.897836 21.5146C0.831314 21.8472 0.798053 22.0135 0.892661 22.1081C0.987269 22.2027 1.15357 22.1694 1.48618 22.1029L5.81317 21.2375C6.40262 21.1196 6.69734 21.0607 6.95844 20.9209C7.21954 20.7812 7.43207 20.5687 7.85713 20.1436L16.8644 11.1363C14.8319 9.87356 13.1158 8.16939 11.8404 6.16033Z" fill="white"/>
</svg>
