<svg width="26" height="26" viewBox="0 0 26 26" fill="none" xmlns="http://www.w3.org/2000/svg">
<path d="M22.3002 14.25C22.0252 14.25 21.7377 14.1625 21.4627 14.1C20.9059 13.9773 20.3586 13.8144 19.8252 13.6125C19.2454 13.4015 18.6079 13.4125 18.0356 13.6433C17.4633 13.874 16.9966 14.3083 16.7252 14.8625L16.4502 15.425C15.2328 14.7477 14.114 13.9065 13.1252 12.925C12.1437 11.9363 11.3025 10.8175 10.6252 9.6L11.1502 9.25C11.7045 8.97865 12.1387 8.51192 12.3695 7.93962C12.6003 7.36732 12.6112 6.72989 12.4002 6.15C12.2018 5.61553 12.0389 5.0685 11.9127 4.5125C11.8502 4.2375 11.8002 3.95 11.7627 3.6625C11.611 2.78203 11.1498 1.98468 10.4623 1.41405C9.77477 0.843424 8.90612 0.537014 8.01275 0.550003H4.26275C3.72404 0.544945 3.19056 0.65602 2.69864 0.875666C2.20671 1.09531 1.76789 1.41837 1.41204 1.82286C1.05619 2.22734 0.791666 2.70375 0.636483 3.21965C0.4813 3.73555 0.439097 4.27883 0.512748 4.8125C1.17867 10.0492 3.57028 14.9149 7.30981 18.6408C11.0493 22.3667 15.9236 24.7406 21.1628 25.3875H21.6377C22.5595 25.3889 23.4495 25.0507 24.1377 24.4375C24.5332 24.0838 24.8491 23.6502 25.0646 23.1654C25.2801 22.6806 25.3902 22.1555 25.3877 21.625V17.875C25.3724 17.0067 25.0563 16.1707 24.4932 15.5096C23.9301 14.8485 23.155 14.4033 22.3002 14.25ZM22.9252 21.75C22.925 21.9275 22.887 22.1029 22.8137 22.2645C22.7404 22.4262 22.6336 22.5704 22.5002 22.6875C22.361 22.8088 22.1977 22.8993 22.0211 22.9531C21.8445 23.007 21.6585 23.0229 21.4753 23C16.7939 22.3998 12.4455 20.2581 9.11614 16.9129C5.78674 13.5676 3.66576 9.20917 3.08775 4.525C3.06785 4.3419 3.08529 4.15667 3.139 3.98049C3.19271 3.80432 3.28159 3.64086 3.40025 3.5C3.51739 3.36667 3.66157 3.2598 3.82322 3.18652C3.98487 3.11324 4.16027 3.07523 4.33775 3.075H8.08775C8.37843 3.06853 8.66228 3.1636 8.89043 3.34384C9.11858 3.52408 9.27676 3.77822 9.33775 4.0625C9.38775 4.40417 9.45025 4.74167 9.52525 5.075C9.66965 5.73393 9.86182 6.38148 10.1002 7.0125L8.35025 7.825C8.20062 7.89365 8.06603 7.99119 7.9542 8.112C7.84236 8.23281 7.7555 8.37452 7.69859 8.529C7.64167 8.68347 7.61584 8.84767 7.62256 9.01216C7.62928 9.17664 7.66842 9.33818 7.73775 9.4875C9.53675 13.3409 12.6343 16.4385 16.4877 18.2375C16.7921 18.3625 17.1334 18.3625 17.4377 18.2375C17.5936 18.1817 17.7369 18.0956 17.8592 17.984C17.9815 17.8724 18.0805 17.7376 18.1502 17.5875L18.9252 15.8375C19.5715 16.0686 20.231 16.2606 20.9002 16.4125C21.2336 16.4875 21.5711 16.55 21.9127 16.6C22.197 16.661 22.4512 16.8192 22.6314 17.0473C22.8116 17.2755 22.9067 17.5593 22.9002 17.85L22.9252 21.75Z" fill="#8E8E8E"/>
</svg>
