<svg width="95" height="95" viewBox="0 0 95 95" fill="none" xmlns="http://www.w3.org/2000/svg">
<path d="M47.5062 0.329956C38.1827 0.329956 29.0686 3.0947 21.3164 8.27455C13.5642 13.4544 7.52205 20.8167 3.9541 29.4305C0.386148 38.0443 -0.54739 47.5227 1.27153 56.6671C3.09046 65.8114 7.58015 74.211 14.1729 80.8037C20.7656 87.3964 29.1652 91.8861 38.3096 93.7051C47.4539 95.524 56.9323 94.5905 65.5461 91.0225C74.1599 87.4546 81.5222 81.4124 86.702 73.6602C91.8819 65.908 94.6466 56.7939 94.6466 47.4704C94.6466 41.2798 93.4273 35.1499 91.0583 29.4305C88.6893 23.7112 85.2169 18.5145 80.8395 14.1371C76.4621 9.75968 71.2654 6.28734 65.5461 3.91831C59.8267 1.54928 53.6968 0.329956 47.5062 0.329956V0.329956ZM47.5062 85.1828C40.0474 85.1828 32.7561 82.971 26.5543 78.8271C20.3526 74.6832 15.5189 68.7933 12.6645 61.9023C9.81016 55.0113 9.06333 47.4286 10.5185 40.1131C11.9736 32.7976 15.5654 26.0779 20.8395 20.8037C26.1137 15.5296 32.8334 11.9378 40.1489 10.4827C47.4644 9.02754 55.0471 9.77437 61.9381 12.6287C68.8291 15.4831 74.719 20.3168 78.8629 26.5185C83.0068 32.7203 85.2186 40.0116 85.2186 47.4704C85.2186 57.4723 81.2453 67.0646 74.1729 74.1371C67.1004 81.2095 57.5081 85.1828 47.5062 85.1828V85.1828ZM66.3624 42.7564H52.2202V28.6142C52.2202 27.364 51.7236 26.1649 50.8395 25.2809C49.9555 24.3968 48.7564 23.9002 47.5062 23.9002C46.256 23.9002 45.0569 24.3968 44.1729 25.2809C43.2888 26.1649 42.7922 27.364 42.7922 28.6142V42.7564H28.65C27.3998 42.7564 26.2007 43.253 25.3167 44.1371C24.4326 45.0211 23.936 46.2202 23.936 47.4704C23.936 48.7206 24.4326 49.9197 25.3167 50.8037C26.2007 51.6878 27.3998 52.1845 28.65 52.1845H42.7922V66.3266C42.7922 67.5768 43.2888 68.7759 44.1729 69.6599C45.0569 70.544 46.256 71.0406 47.5062 71.0406C48.7564 71.0406 49.9555 70.544 50.8395 69.6599C51.7236 68.7759 52.2202 67.5768 52.2202 66.3266V52.1845H66.3624C67.6126 52.1845 68.8117 51.6878 69.6957 50.8037C70.5798 49.9197 71.0764 48.7206 71.0764 47.4704C71.0764 46.2202 70.5798 45.0211 69.6957 44.1371C68.8117 43.253 67.6126 42.7564 66.3624 42.7564Z" fill="white"/>
</svg>
