<svg width="30" height="30" viewBox="0 0 30 30" fill="none" xmlns="http://www.w3.org/2000/svg">
<path d="M3.75 11.75C3.75 7.97876 3.75 6.09315 4.92157 4.92157C6.09315 3.75 7.97876 3.75 11.75 3.75H18.25C22.0212 3.75 23.9069 3.75 25.0784 4.92157C26.25 6.09315 26.25 7.97876 26.25 11.75V18.25C26.25 22.0212 26.25 23.9069 25.0784 25.0784C23.9069 26.25 22.0212 26.25 18.25 26.25H11.75C7.97876 26.25 6.09315 26.25 4.92157 25.0784C3.75 23.9069 3.75 22.0212 3.75 18.25V11.75Z" fill="#4098FF"/>
<circle cx="15" cy="12.5" r="5" fill="white"/>
<path fill-rule="evenodd" clip-rule="evenodd" d="M23.4279 25.7325C23.4465 25.8561 23.3666 25.9727 23.2444 25.9992C22.0872 26.25 20.506 26.25 18.2501 26.25H11.7501C9.14734 26.25 7.44273 26.25 6.25114 25.8648C6.13986 25.8288 6.07356 25.7163 6.09331 25.601C6.7136 21.9798 10.3531 19.2 14.75 19.2C19.2001 19.2 22.8742 22.0473 23.4279 25.7325Z" fill="white"/>
</svg>
