<svg width="34" height="34" viewBox="0 0 34 34" fill="none" xmlns="http://www.w3.org/2000/svg">
<path d="M32.1165 25.05L28.6665 21.5167C27.9244 20.8112 26.9883 20.3439 25.9785 20.1746C24.9687 20.0053 23.9314 20.1418 22.9998 20.5667L21.4998 19.0667C23.2674 16.7049 24.0747 13.7611 23.7591 10.8281C23.4435 7.89499 22.0284 5.19037 19.7989 3.25867C17.5693 1.32696 14.6907 0.311595 11.7426 0.416974C8.79448 0.522353 5.99573 1.74065 3.90977 3.82661C1.82381 5.91258 0.605508 8.71132 0.500128 11.6594C0.394749 14.6076 1.41011 17.4861 3.34182 19.7157C5.27353 21.9453 7.97815 23.3603 10.9112 23.6759C13.8443 23.9915 16.788 23.1843 19.1498 21.4167L20.6332 22.9C20.1583 23.8327 19.9881 24.8909 20.1466 25.9255C20.3051 26.9601 20.7842 27.9188 21.5165 28.6667L25.0498 32.2C25.9873 33.1363 27.2582 33.6623 28.5832 33.6623C29.9082 33.6623 31.179 33.1363 32.1165 32.2C32.5927 31.7343 32.9711 31.1782 33.2295 30.5643C33.4878 29.9504 33.6209 29.2911 33.6209 28.625C33.6209 27.9589 33.4878 27.2996 33.2295 26.6857C32.9711 26.0718 32.5927 25.5157 32.1165 25.05V25.05ZM17.9832 17.9833C16.8169 19.1467 15.332 19.9382 13.7161 20.2581C12.1001 20.5779 10.4256 20.4117 8.90416 19.7803C7.38267 19.149 6.08242 18.0808 5.16767 16.7109C4.25293 15.3409 3.76472 13.7306 3.76472 12.0833C3.76472 10.4361 4.25293 8.82572 5.16767 7.45577C6.08242 6.08582 7.38267 5.0177 8.90416 4.38635C10.4256 3.75501 12.1001 3.58875 13.7161 3.90858C15.332 4.22842 16.8169 5.02 17.9832 6.18333C18.7592 6.95743 19.3749 7.87702 19.795 8.88944C20.2151 9.90186 20.4314 10.9872 20.4314 12.0833C20.4314 13.1795 20.2151 14.2648 19.795 15.2772C19.3749 16.2896 18.7592 17.2092 17.9832 17.9833V17.9833ZM29.7665 29.7667C29.6116 29.9229 29.4272 30.0469 29.2241 30.1315C29.021 30.2161 28.8032 30.2597 28.5832 30.2597C28.3631 30.2597 28.1453 30.2161 27.9422 30.1315C27.7391 30.0469 27.5548 29.9229 27.3998 29.7667L23.8665 26.2333C23.7103 26.0784 23.5863 25.8941 23.5017 25.691C23.4171 25.4879 23.3735 25.27 23.3735 25.05C23.3735 24.83 23.4171 24.6121 23.5017 24.409C23.5863 24.2059 23.7103 24.0216 23.8665 23.8667C24.0214 23.7105 24.2058 23.5865 24.4089 23.5018C24.612 23.4172 24.8298 23.3737 25.0498 23.3737C25.2698 23.3737 25.4877 23.4172 25.6908 23.5018C25.8939 23.5865 26.0782 23.7105 26.2332 23.8667L29.7665 27.4C29.9227 27.5549 30.0467 27.7393 30.1313 27.9424C30.2159 28.1455 30.2595 28.3633 30.2595 28.5833C30.2595 28.8034 30.2159 29.0212 30.1313 29.2243C30.0467 29.4274 29.9227 29.6117 29.7665 29.7667V29.7667Z" fill="white"/>
</svg>
